<?xml version="1.0" encoding="UTF-8" standalone="no"?>
<svg
   width="145.20mm"
   height="158.30mm"
   viewBox="0.0 0.0 145.20 158.30"
   version="1.1"
   id="svg29687"
   sodipodi:docname="ClosedBox.svg"
   inkscape:version="1.2.1 (9c6d41e410, 2022-07-14)"
   xml:space="preserve"
   xmlns:inkscape="http://www.inkscape.org/namespaces/inkscape"
   xmlns:sodipodi="http://sodipodi.sourceforge.net/DTD/sodipodi-0.dtd"
   xmlns="http://www.w3.org/2000/svg"
   xmlns:svg="http://www.w3.org/2000/svg"
   xmlns:rdf="http://www.w3.org/1999/02/22-rdf-syntax-ns#"
   xmlns:cc="http://creativecommons.org/ns#"
   xmlns:dc="http://purl.org/dc/elements/1.1/"><defs
     id="defs29691" /><sodipodi:namedview
     id="namedview29689"
     pagecolor="#ffffff"
     bordercolor="#000000"
     borderopacity="0.25"
     inkscape:showpageshadow="2"
     inkscape:pageopacity="0.0"
     inkscape:pagecheckerboard="0"
     inkscape:deskcolor="#d1d1d1"
     inkscape:document-units="mm"
     showgrid="true"
     inkscape:zoom="2.4890002"
     inkscape:cx="225.59259"
     inkscape:cy="156.28765"
     inkscape:window-width="2560"
     inkscape:window-height="1377"
     inkscape:window-x="-8"
     inkscape:window-y="-8"
     inkscape:window-maximized="1"
     inkscape:current-layer="svg29687"><inkscape:grid
       type="xygrid"
       id="grid29810" /></sodipodi:namedview><!--
ClosedBox - Fully closed box


This box is more of a building block than a finished item.
Use a vector graphics program (like Inkscape) to add holes or adjust the base
plate.

See BasedBox for variant with a base.


Created with Boxes.py (https://festi.info/boxes.py)
Creation date: 2023-02-23 12:09:36
Command line (remove spaces between dashes): boxes ClosedBox - -FingerJoint_angle=90.0 - -FingerJoint_style=rectangular - -FingerJoint_surroundingspaces=2.0 - -FingerJoint_bottom_lip=0.0 - -FingerJoint_edge_width=1.0 - -FingerJoint_extra_length=0.0 - -FingerJoint_finger=2.0 - -FingerJoint_play=0.0 - -FingerJoint_space=2.0 - -FingerJoint_width=1.0 - -x=50 - -y=70 - -h=25 - -outside=0 - -thickness=1 - -format=svg - -tabs=0 - -debug=0 - -labels=0 - -labels=1 - -reference=100 - -inner_corners=loop - -burn=0.1
Url: http://www.festi.info/boxes.py/ClosedBox?FingerJoint_angle=90.0&FingerJoint_style=rectangular&FingerJoint_surroundingspaces=2.0&FingerJoint_bottom_lip=0.0&FingerJoint_edge_width=1.0&FingerJoint_extra_length=0.0&FingerJoint_finger=2.0&FingerJoint_play=0.0&FingerJoint_space=2.0&FingerJoint_width=1.0&x=50&y=70&h=25&outside=0&thickness=1&format=svg&tabs=0&debug=0&labels=0&labels=1&reference=100&inner_corners=loop&burn=0.1&render=1
SettingsUrl: http://www.festi.info/boxes.py/ClosedBox?FingerJoint_angle=90.0&FingerJoint_style=rectangular&FingerJoint_surroundingspaces=2.0&FingerJoint_bottom_lip=0.0&FingerJoint_edge_width=1.0&FingerJoint_extra_length=0.0&FingerJoint_finger=2.0&FingerJoint_play=0.0&FingerJoint_space=2.0&FingerJoint_width=1.0&x=50&y=70&h=25&outside=0&thickness=1&format=svg&tabs=0&debug=0&labels=0&labels=1&reference=100&inner_corners=loop&burn=0.1
--><title
     id="title29648">ClosedBox</title><metadata
     id="metadata29650"><rdf:RDF><cc:Work><dc:title>Box - ClosedBox</dc:title><dc:date>2023-02-23 12:09:36</dc:date><dc:source>http://www.festi.info/boxes.py/ClosedBox?FingerJoint_angle=90.0&amp;FingerJoint_style=rectangular&amp;FingerJoint_surroundingspaces=2.0&amp;FingerJoint_bottom_lip=0.0&amp;FingerJoint_edge_width=1.0&amp;FingerJoint_extra_length=0.0&amp;FingerJoint_finger=2.0&amp;FingerJoint_play=0.0&amp;FingerJoint_space=2.0&amp;FingerJoint_width=1.0&amp;x=50&amp;y=70&amp;h=25&amp;outside=0&amp;thickness=1&amp;format=svg&amp;tabs=0&amp;debug=0&amp;labels=0&amp;labels=1&amp;reference=100&amp;inner_corners=loop&amp;burn=0.1&amp;render=1</dc:source><dc:description>Fully closed box

This box is more of a building block than a finished item.
Use a vector graphics program (like Inkscape) to add holes or adjust the base
plate.

See BasedBox for variant with a base.

Created with Boxes.py (https://festi.info/boxes.py)
Command line: boxes ClosedBox --FingerJoint_angle=90.0 --FingerJoint_style=rectangular --FingerJoint_surroundingspaces=2.0 --FingerJoint_bottom_lip=0.0 --FingerJoint_edge_width=1.0 --FingerJoint_extra_length=0.0 --FingerJoint_finger=2.0 --FingerJoint_play=0.0 --FingerJoint_space=2.0 --FingerJoint_width=1.0 --x=50 --y=70 --h=25 --outside=0 --thickness=1 --format=svg --tabs=0 --debug=0 --labels=0 --labels=1 --reference=100 --inner_corners=loop --burn=0.1
Url: http://www.festi.info/boxes.py/ClosedBox?FingerJoint_angle=90.0&amp;FingerJoint_style=rectangular&amp;FingerJoint_surroundingspaces=2.0&amp;FingerJoint_bottom_lip=0.0&amp;FingerJoint_edge_width=1.0&amp;FingerJoint_extra_length=0.0&amp;FingerJoint_finger=2.0&amp;FingerJoint_play=0.0&amp;FingerJoint_space=2.0&amp;FingerJoint_width=1.0&amp;x=50&amp;y=70&amp;h=25&amp;outside=0&amp;thickness=1&amp;format=svg&amp;tabs=0&amp;debug=0&amp;labels=0&amp;labels=1&amp;reference=100&amp;inner_corners=loop&amp;burn=0.1&amp;render=1
SettingsUrl: http://www.festi.info/boxes.py/ClosedBox?FingerJoint_angle=90.0&amp;FingerJoint_style=rectangular&amp;FingerJoint_surroundingspaces=2.0&amp;FingerJoint_bottom_lip=0.0&amp;FingerJoint_edge_width=1.0&amp;FingerJoint_extra_length=0.0&amp;FingerJoint_finger=2.0&amp;FingerJoint_play=0.0&amp;FingerJoint_space=2.0&amp;FingerJoint_width=1.0&amp;x=50&amp;y=70&amp;h=25&amp;outside=0&amp;thickness=1&amp;format=svg&amp;tabs=0&amp;debug=0&amp;labels=0&amp;labels=1&amp;reference=100&amp;inner_corners=loop&amp;burn=0.1
</dc:description></cc:Work></rdf:RDF></metadata><g
     id="p-1"
     style="fill:none;stroke-linecap:round;stroke-linejoin:round"
     transform="translate(-1.4,-1.5)"><text
       transform="translate(36.4,122.1)"
       style="font-style:normal;font-weight:normal;font-family:sans-serif;fill:#ff00ff;stroke:none"
       font-size="4px"
       text-anchor="middle"
       dominant-baseline="hanging"
       id="text29657">Wall 1</text><path
       d="m 11.4,137.6 h 2 c 0.055,0 0.1,-0.045 0.1,-0.1 v -0.9 c 0,-0.1 -0.1,0 0,0 h 1.8 c 0.1,0 0,-0.1 0,0 v 0.9 c 0,0.055 0.045,0.1 0.1,0.1 h 2 c 0.055,0 0.1,-0.045 0.1,-0.1 v -0.9 c 0,-0.1 -0.1,0 0,0 h 1.8 c 0.1,0 0,-0.1 0,0 v 0.9 c 0,0.055 0.045,0.1 0.1,0.1 h 2 c 0.055,0 0.1,-0.045 0.1,-0.1 v -0.9 c 0,-0.1 -0.1,0 0,0 h 1.8 c 0.1,0 0,-0.1 0,0 v 0.9 c 0,0.055 0.045,0.1 0.1,0.1 h 2 c 0.055,0 0.1,-0.045 0.1,-0.1 v -0.9 c 0,-0.1 -0.1,0 0,0 h 1.8 c 0.1,0 0,-0.1 0,0 v 0.9 c 0,0.055 0.045,0.1 0.1,0.1 h 2 c 0.055,0 0.1,-0.045 0.1,-0.1 v -0.9 c 0,-0.1 -0.1,0 0,0 h 1.8 c 0.1,0 0,-0.1 0,0 v 0.9 c 0,0.055 0.045,0.1 0.1,0.1 h 2 c 0.055,0 0.1,-0.045 0.1,-0.1 v -0.9 c 0,-0.1 -0.1,0 0,0 h 1.8 c 0.1,0 0,-0.1 0,0 v 0.9 c 0,0.055 0.045,0.1 0.1,0.1 h 2 c 0.055,0 0.1,-0.045 0.1,-0.1 v -0.9 c 0,-0.1 -0.1,0 0,0 h 1.8 c 0.1,0 0,-0.1 0,0 v 0.9 c 0,0.055 0.045,0.1 0.1,0.1 h 2 c 0.055,0 0.1,-0.045 0.1,-0.1 v -0.9 c 0,-0.1 -0.1,0 0,0 h 1.8 c 0.1,0 0,-0.1 0,0 v 0.9 c 0,0.055 0.045,0.1 0.1,0.1 h 2 c 0.055,0 0.1,-0.045 0.1,-0.1 v -0.9 c 0,-0.1 -0.1,0 0,0 h 1.8 c 0.1,0 0,-0.1 0,0 v 0.9 c 0,0.055 0.045,0.1 0.1,0.1 h 2 c 0.055,0 0.1,-0.045 0.1,-0.1 v -0.9 c 0,-0.1 -0.1,0 0,0 h 1.8 c 0.1,0 0,-0.1 0,0 v 0.9 c 0,0.055 0.045,0.1 0.1,0.1 h 2 c 0.055,0 0.1,-0.045 0.1,-0.1 v -0.9 c 0,-0.1 -0.1,0 0,0 h 1.8 c 0.1,0 0,-0.1 0,0 v 0.9 c 0,0.055 0.045,0.1 0.1,0.1 h 2 c 0.055,0 0.1,-0.045 0.1,-0.1 v -0.9 c 0,-0.1 -0.1,0 0,0 h 1.8 c 0.1,0 0,-0.1 0,0 v 0.9 c 0,0.055 0.045,0.1 0.1,0.1 h 2 1 c 0.055,0 0.1,-0.045 0.1,-0.1 v -1 -3.5 c 0,-0.055 -0.045,-0.1 -0.1,-0.1 h -0.9 c -0.1,0 0,0.1 0,0 v -1.8 c 0,-0.1 -0.1,0 0,0 h 0.9 c 0.055,0 0.1,-0.045 0.1,-0.1 v -2 c 0,-0.055 -0.045,-0.1 -0.1,-0.1 h -0.9 c -0.1,0 0,0.1 0,0 v -1.8 c 0,-0.1 -0.1,0 0,0 h 0.9 c 0.055,0 0.1,-0.045 0.1,-0.1 v -2 c 0,-0.055 -0.045,-0.1 -0.1,-0.1 h -0.9 c -0.1,0 0,0.1 0,0 v -1.8 c 0,-0.1 -0.1,0 0,0 h 0.9 c 0.055,0 0.1,-0.045 0.1,-0.1 v -2 c 0,-0.055 -0.045,-0.1 -0.1,-0.1 h -0.9 c -0.1,0 0,0.1 0,0 v -1.8 c 0,-0.1 -0.1,0 0,0 h 0.9 c 0.055,0 0.1,-0.045 0.1,-0.1 v -2 c 0,-0.055 -0.045,-0.1 -0.1,-0.1 h -0.9 c -0.1,0 0,0.1 0,0 v -1.8 c 0,-0.1 -0.1,0 0,0 h 0.9 c 0.055,0 0.1,-0.045 0.1,-0.1 v -3.5 -1 c 0,-0.055 -0.045,-0.1 -0.1,-0.1 h -1 -2 c -0.055,0 -0.1,0.045 -0.1,0.1 v 0.9 c 0,0.1 0.1,0 0,0 h -1.8 c -0.1,0 0,0.1 0,0 v -0.9 c 0,-0.055 -0.045,-0.1 -0.1,-0.1 h -2 c -0.055,0 -0.1,0.045 -0.1,0.1 v 0.9 c 0,0.1 0.1,0 0,0 h -1.8 c -0.1,0 0,0.1 0,0 v -0.9 c 0,-0.055 -0.045,-0.1 -0.1,-0.1 h -2 c -0.055,0 -0.1,0.045 -0.1,0.1 v 0.9 c 0,0.1 0.1,0 0,0 h -1.8 c -0.1,0 0,0.1 0,0 v -0.9 c 0,-0.055 -0.045,-0.1 -0.1,-0.1 h -2 c -0.055,0 -0.1,0.045 -0.1,0.1 v 0.9 c 0,0.1 0.1,0 0,0 h -1.8 c -0.1,0 0,0.1 0,0 v -0.9 c 0,-0.055 -0.045,-0.1 -0.1,-0.1 h -2 c -0.055,0 -0.1,0.045 -0.1,0.1 v 0.9 c 0,0.1 0.1,0 0,0 h -1.8 c -0.1,0 0,0.1 0,0 v -0.9 c 0,-0.055 -0.045,-0.1 -0.1,-0.1 h -2 c -0.055,0 -0.1,0.045 -0.1,0.1 v 0.9 c 0,0.1 0.1,0 0,0 h -1.8 c -0.1,0 0,0.1 0,0 v -0.9 c 0,-0.055 -0.045,-0.1 -0.1,-0.1 h -2 c -0.055,0 -0.1,0.045 -0.1,0.1 v 0.9 c 0,0.1 0.1,0 0,0 h -1.8 c -0.1,0 0,0.1 0,0 v -0.9 c 0,-0.055 -0.045,-0.1 -0.1,-0.1 h -2 c -0.055,0 -0.1,0.045 -0.1,0.1 v 0.9 c 0,0.1 0.1,0 0,0 h -1.8 c -0.1,0 0,0.1 0,0 v -0.9 c 0,-0.055 -0.045,-0.1 -0.1,-0.1 h -2 c -0.055,0 -0.1,0.045 -0.1,0.1 v 0.9 c 0,0.1 0.1,0 0,0 h -1.8 c -0.1,0 0,0.1 0,0 v -0.9 c 0,-0.055 -0.045,-0.1 -0.1,-0.1 h -2 c -0.055,0 -0.1,0.045 -0.1,0.1 v 0.9 c 0,0.1 0.1,0 0,0 h -1.8 c -0.1,0 0,0.1 0,0 v -0.9 c 0,-0.055 -0.045,-0.1 -0.1,-0.1 h -2 c -0.055,0 -0.1,0.045 -0.1,0.1 v 0.9 c 0,0.1 0.1,0 0,0 h -1.8 c -0.1,0 0,0.1 0,0 v -0.9 c 0,-0.055 -0.045,-0.1 -0.1,-0.1 h -2 c -0.055,0 -0.1,0.045 -0.1,0.1 v 0.9 c 0,0.1 0.1,0 0,0 h -1.8 c -0.1,0 0,0.1 0,0 v -0.9 c 0,-0.055 -0.045,-0.1 -0.1,-0.1 h -2 -1 c -0.055,0 -0.1,0.045 -0.1,0.1 v 1 3.5 c 0,0.055 0.045,0.1 0.1,0.1 h 0.9 c 0.1,0 0,-0.1 0,0 v 1.8 c 0,0.1 0.1,0 0,0 h -0.9 c -0.055,0 -0.1,0.045 -0.1,0.1 v 2 c 0,0.055 0.045,0.1 0.1,0.1 h 0.9 c 0.1,0 0,-0.1 0,0 v 1.8 c 0,0.1 0.1,0 0,0 h -0.9 c -0.055,0 -0.1,0.045 -0.1,0.1 v 2 c 0,0.055 0.045,0.1 0.1,0.1 h 0.9 c 0.1,0 0,-0.1 0,0 v 1.8 c 0,0.1 0.1,0 0,0 h -0.9 c -0.055,0 -0.1,0.045 -0.1,0.1 v 2 c 0,0.055 0.045,0.1 0.1,0.1 h 0.9 c 0.1,0 0,-0.1 0,0 v 1.8 c 0,0.1 0.1,0 0,0 h -0.9 c -0.055,0 -0.1,0.045 -0.1,0.1 v 2 c 0,0.055 0.045,0.1 0.1,0.1 h 0.9 c 0.1,0 0,-0.1 0,0 v 1.8 c 0,0.1 0.1,0 0,0 h -0.9 c -0.055,0 -0.1,0.045 -0.1,0.1 v 3.5 1 c 0,0.055 0.045,0.1 0.1,0.1 h 1"
       stroke="rgb(0,0,0)"
       stroke-width="0.2"
       id="path29659"
       style="stroke:#ff0000" /></g><g
     id="p-2"
     style="fill:none;stroke-linecap:round;stroke-linejoin:round"
     transform="translate(-1.1,-1.5)"><text
       transform="translate(99.1,122.1)"
       style="font-style:normal;font-weight:normal;font-family:sans-serif;fill:#ff00ff;stroke:none"
       font-size="4px"
       text-anchor="middle"
       dominant-baseline="hanging"
       id="text29662">Wall 2</text><path
       d="m 64.1,137.6 h 2 c 0.055,0 0.1,-0.045 0.1,-0.1 v -0.9 c 0,-0.1 -0.1,0 0,0 H 68 c 0.1,0 0,-0.1 0,0 v 0.9 c 0,0.055 0.045,0.1 0.1,0.1 h 2 c 0.055,0 0.1,-0.045 0.1,-0.1 v -0.9 c 0,-0.1 -0.1,0 0,0 H 72 c 0.1,0 0,-0.1 0,0 v 0.9 c 0,0.055 0.045,0.1 0.1,0.1 h 2 c 0.055,0 0.1,-0.045 0.1,-0.1 v -0.9 c 0,-0.1 -0.1,0 0,0 H 76 c 0.1,0 0,-0.1 0,0 v 0.9 c 0,0.055 0.045,0.1 0.1,0.1 h 2 c 0.055,0 0.1,-0.045 0.1,-0.1 v -0.9 c 0,-0.1 -0.1,0 0,0 H 80 c 0.1,0 0,-0.1 0,0 v 0.9 c 0,0.055 0.045,0.1 0.1,0.1 h 2 c 0.055,0 0.1,-0.045 0.1,-0.1 v -0.9 c 0,-0.1 -0.1,0 0,0 H 84 c 0.1,0 0,-0.1 0,0 v 0.9 c 0,0.055 0.045,0.1 0.1,0.1 h 2 c 0.055,0 0.1,-0.045 0.1,-0.1 v -0.9 c 0,-0.1 -0.1,0 0,0 H 88 c 0.1,0 0,-0.1 0,0 v 0.9 c 0,0.055 0.045,0.1 0.1,0.1 h 2 c 0.055,0 0.1,-0.045 0.1,-0.1 v -0.9 c 0,-0.1 -0.1,0 0,0 H 92 c 0.1,0 0,-0.1 0,0 v 0.9 c 0,0.055 0.045,0.1 0.1,0.1 h 2 c 0.055,0 0.1,-0.045 0.1,-0.1 v -0.9 c 0,-0.1 -0.1,0 0,0 H 96 c 0.1,0 0,-0.1 0,0 v 0.9 c 0,0.055 0.045,0.1 0.1,0.1 h 2 c 0.055,0 0.1,-0.045 0.1,-0.1 v -0.9 c 0,-0.1 -0.1,0 0,0 h 1.8 c 0.1,0 0,-0.1 0,0 v 0.9 c 0,0.055 0.045,0.1 0.1,0.1 h 2 c 0.055,0 0.1,-0.045 0.1,-0.1 v -0.9 c 0,-0.1 -0.1,0 0,0 h 1.8 c 0.1,0 0,-0.1 0,0 v 0.9 c 0,0.055 0.045,0.1 0.1,0.1 h 2 c 0.055,0 0.1,-0.045 0.1,-0.1 v -0.9 c 0,-0.1 -0.1,0 0,0 h 1.8 c 0.1,0 0,-0.1 0,0 v 0.9 c 0,0.055 0.045,0.1 0.1,0.1 h 2 c 0.055,0 0.1,-0.045 0.1,-0.1 v -0.9 c 0,-0.1 -0.1,0 0,0 h 1.8 c 0.1,0 0,-0.1 0,0 v 0.9 c 0,0.055 0.045,0.1 0.1,0.1 h 2 c 0.055,0 0.1,-0.045 0.1,-0.1 v -0.9 c 0,-0.1 -0.1,0 0,0 h 1.8 c 0.1,0 0,-0.1 0,0 v 0.9 c 0,0.055 0.045,0.1 0.1,0.1 h 2 c 0.055,0 0.1,-0.045 0.1,-0.1 v -0.9 c 0,-0.1 -0.1,0 0,0 h 1.8 c 0.1,0 0,-0.1 0,0 v 0.9 c 0,0.055 0.045,0.1 0.1,0.1 h 2 c 0.055,0 0.1,-0.045 0.1,-0.1 v -0.9 c 0,-0.1 -0.1,0 0,0 h 1.8 c 0.1,0 0,-0.1 0,0 v 0.9 c 0,0.055 0.045,0.1 0.1,0.1 h 2 c 0.055,0 0.1,-0.045 0.1,-0.1 v -0.9 c 0,-0.1 -0.1,0 0,0 h 1.8 c 0.1,0 0,-0.1 0,0 v 0.9 c 0,0.055 0.045,0.1 0.1,0.1 h 2 c 0.055,0 0.1,-0.045 0.1,-0.1 v -0.9 c 0,-0.1 -0.1,0 0,0 h 1.8 c 0.1,0 0,-0.1 0,0 v 0.9 c 0,0.055 0.045,0.1 0.1,0.1 h 2 c 0.055,0 0.1,-0.045 0.1,-0.1 v -1 -3.4 c 0,-0.1 -0.1,0 0,0 h 0.9 c 0.055,0 0.1,-0.045 0.1,-0.1 v -2 c 0,-0.055 -0.045,-0.1 -0.1,-0.1 h -0.9 c -0.1,0 0,0.1 0,0 v -1.8 c 0,-0.1 -0.1,0 0,0 h 0.9 c 0.055,0 0.1,-0.045 0.1,-0.1 v -2 c 0,-0.055 -0.045,-0.1 -0.1,-0.1 h -0.9 c -0.1,0 0,0.1 0,0 v -1.8 c 0,-0.1 -0.1,0 0,0 h 0.9 c 0.055,0 0.1,-0.045 0.1,-0.1 v -2 c 0,-0.055 -0.045,-0.1 -0.1,-0.1 h -0.9 c -0.1,0 0,0.1 0,0 v -1.8 c 0,-0.1 -0.1,0 0,0 h 0.9 c 0.055,0 0.1,-0.045 0.1,-0.1 v -2 c 0,-0.055 -0.045,-0.1 -0.1,-0.1 h -0.9 c -0.1,0 0,0.1 0,0 v -1.8 c 0,-0.1 -0.1,0 0,0 h 0.9 c 0.055,0 0.1,-0.045 0.1,-0.1 v -2 c 0,-0.055 -0.045,-0.1 -0.1,-0.1 h -0.9 c -0.1,0 0,0.1 0,0 v -3.4 -1 c 0,-0.055 -0.045,-0.1 -0.1,-0.1 h -2 c -0.055,0 -0.1,0.045 -0.1,0.1 v 0.9 c 0,0.1 0.1,0 0,0 h -1.8 c -0.1,0 0,0.1 0,0 v -0.9 c 0,-0.055 -0.045,-0.1 -0.1,-0.1 h -2 c -0.055,0 -0.1,0.045 -0.1,0.1 v 0.9 c 0,0.1 0.1,0 0,0 h -1.8 c -0.1,0 0,0.1 0,0 v -0.9 c 0,-0.055 -0.045,-0.1 -0.1,-0.1 h -2 c -0.055,0 -0.1,0.045 -0.1,0.1 v 0.9 c 0,0.1 0.1,0 0,0 h -1.8 c -0.1,0 0,0.1 0,0 v -0.9 c 0,-0.055 -0.045,-0.1 -0.1,-0.1 h -2 c -0.055,0 -0.1,0.045 -0.1,0.1 v 0.9 c 0,0.1 0.1,0 0,0 h -1.8 c -0.1,0 0,0.1 0,0 v -0.9 c 0,-0.055 -0.045,-0.1 -0.1,-0.1 h -2 c -0.055,0 -0.1,0.045 -0.1,0.1 v 0.9 c 0,0.1 0.1,0 0,0 h -1.8 c -0.1,0 0,0.1 0,0 v -0.9 c 0,-0.055 -0.045,-0.1 -0.1,-0.1 h -2 c -0.055,0 -0.1,0.045 -0.1,0.1 v 0.9 c 0,0.1 0.1,0 0,0 h -1.8 c -0.1,0 0,0.1 0,0 v -0.9 c 0,-0.055 -0.045,-0.1 -0.1,-0.1 h -2 c -0.055,0 -0.1,0.045 -0.1,0.1 v 0.9 c 0,0.1 0.1,0 0,0 h -1.8 c -0.1,0 0,0.1 0,0 v -0.9 c 0,-0.055 -0.045,-0.1 -0.1,-0.1 h -2 c -0.055,0 -0.1,0.045 -0.1,0.1 v 0.9 c 0,0.1 0.1,0 0,0 h -1.8 c -0.1,0 0,0.1 0,0 v -0.9 c 0,-0.055 -0.045,-0.1 -0.1,-0.1 h -2 c -0.055,0 -0.1,0.045 -0.1,0.1 v 0.9 c 0,0.1 0.1,0 0,0 h -1.8 c -0.1,0 0,0.1 0,0 v -0.9 c 0,-0.055 -0.045,-0.1 -0.1,-0.1 h -2 c -0.055,0 -0.1,0.045 -0.1,0.1 v 0.9 c 0,0.1 0.1,0 0,0 h -1.8 c -0.1,0 0,0.1 0,0 v -0.9 c 0,-0.055 -0.045,-0.1 -0.1,-0.1 h -2 c -0.055,0 -0.1,0.045 -0.1,0.1 v 0.9 c 0,0.1 0.1,0 0,0 h -1.8 c -0.1,0 0,0.1 0,0 v -0.9 c 0,-0.055 -0.045,-0.1 -0.1,-0.1 h -2 c -0.055,0 -0.1,0.045 -0.1,0.1 v 0.9 c 0,0.1 0.1,0 0,0 h -1.8 c -0.1,0 0,0.1 0,0 v -0.9 c 0,-0.055 -0.045,-0.1 -0.1,-0.1 h -2 c -0.055,0 -0.1,0.045 -0.1,0.1 v 0.9 c 0,0.1 0.1,0 0,0 h -1.8 c -0.1,0 0,0.1 0,0 v -0.9 c 0,-0.055 -0.045,-0.1 -0.1,-0.1 h -2 c -0.055,0 -0.1,0.045 -0.1,0.1 v 0.9 c 0,0.1 0.1,0 0,0 h -1.8 c -0.1,0 0,0.1 0,0 v -0.9 c 0,-0.055 -0.045,-0.1 -0.1,-0.1 h -2 c -0.055,0 -0.1,0.045 -0.1,0.1 v 0.9 c 0,0.1 0.1,0 0,0 h -1.8 c -0.1,0 0,0.1 0,0 v -0.9 c 0,-0.055 -0.045,-0.1 -0.1,-0.1 h -2 c -0.055,0 -0.1,0.045 -0.1,0.1 v 0.9 c 0,0.1 0.1,0 0,0 h -1.8 c -0.1,0 0,0.1 0,0 v -0.9 c 0,-0.055 -0.045,-0.1 -0.1,-0.1 h -2 c -0.055,0 -0.1,0.045 -0.1,0.1 v 0.9 c 0,0.1 0.1,0 0,0 h -1.8 c -0.1,0 0,0.1 0,0 v -0.9 c 0,-0.055 -0.045,-0.1 -0.1,-0.1 h -2 c -0.055,0 -0.1,0.045 -0.1,0.1 v 1 3.4 c 0,0.1 0.1,0 0,0 h -0.9 c -0.055,0 -0.1,0.045 -0.1,0.1 v 2 c 0,0.055 0.045,0.1 0.1,0.1 H 64 c 0.1,0 0,-0.1 0,0 v 1.8 c 0,0.1 0.1,0 0,0 h -0.9 c -0.055,0 -0.1,0.045 -0.1,0.1 v 2 c 0,0.055 0.045,0.1 0.1,0.1 H 64 c 0.1,0 0,-0.1 0,0 v 1.8 c 0,0.1 0.1,0 0,0 h -0.9 c -0.055,0 -0.1,0.045 -0.1,0.1 v 2 c 0,0.055 0.045,0.1 0.1,0.1 H 64 c 0.1,0 0,-0.1 0,0 v 1.8 c 0,0.1 0.1,0 0,0 h -0.9 c -0.055,0 -0.1,0.045 -0.1,0.1 v 2 c 0,0.055 0.045,0.1 0.1,0.1 H 64 c 0.1,0 0,-0.1 0,0 v 1.8 c 0,0.1 0.1,0 0,0 h -0.9 c -0.055,0 -0.1,0.045 -0.1,0.1 v 2 c 0,0.055 0.045,0.1 0.1,0.1 H 64 c 0.1,0 0,-0.1 0,0 v 3.4 1 c 0,0.055 0.045,0.1 0.1,0.1"
       stroke="rgb(0,0,0)"
       stroke-width="0.2"
       id="path29664"
       style="stroke:#ff0000" /></g><g
     id="p-3"
     style="fill:none;stroke-linecap:round;stroke-linejoin:round"
     transform="translate(-1.1,-3.8)"><text
       transform="translate(99.1,94.4)"
       style="font-style:normal;font-weight:normal;font-family:sans-serif;fill:#ff00ff;stroke:none"
       font-size="4px"
       text-anchor="middle"
       dominant-baseline="hanging"
       id="text29667">Wall 4</text><path
       d="m 64.1,109.9 h 2 c 0.055,0 0.1,-0.045 0.1,-0.1 v -0.9 c 0,-0.1 -0.1,0 0,0 H 68 c 0.1,0 0,-0.1 0,0 v 0.9 c 0,0.055 0.045,0.1 0.1,0.1 h 2 c 0.055,0 0.1,-0.045 0.1,-0.1 v -0.9 c 0,-0.1 -0.1,0 0,0 H 72 c 0.1,0 0,-0.1 0,0 v 0.9 c 0,0.055 0.045,0.1 0.1,0.1 h 2 c 0.055,0 0.1,-0.045 0.1,-0.1 v -0.9 c 0,-0.1 -0.1,0 0,0 H 76 c 0.1,0 0,-0.1 0,0 v 0.9 c 0,0.055 0.045,0.1 0.1,0.1 h 2 c 0.055,0 0.1,-0.045 0.1,-0.1 v -0.9 c 0,-0.1 -0.1,0 0,0 H 80 c 0.1,0 0,-0.1 0,0 v 0.9 c 0,0.055 0.045,0.1 0.1,0.1 h 2 c 0.055,0 0.1,-0.045 0.1,-0.1 v -0.9 c 0,-0.1 -0.1,0 0,0 H 84 c 0.1,0 0,-0.1 0,0 v 0.9 c 0,0.055 0.045,0.1 0.1,0.1 h 2 c 0.055,0 0.1,-0.045 0.1,-0.1 v -0.9 c 0,-0.1 -0.1,0 0,0 H 88 c 0.1,0 0,-0.1 0,0 v 0.9 c 0,0.055 0.045,0.1 0.1,0.1 h 2 c 0.055,0 0.1,-0.045 0.1,-0.1 v -0.9 c 0,-0.1 -0.1,0 0,0 H 92 c 0.1,0 0,-0.1 0,0 v 0.9 c 0,0.055 0.045,0.1 0.1,0.1 h 2 c 0.055,0 0.1,-0.045 0.1,-0.1 v -0.9 c 0,-0.1 -0.1,0 0,0 H 96 c 0.1,0 0,-0.1 0,0 v 0.9 c 0,0.055 0.045,0.1 0.1,0.1 h 2 c 0.055,0 0.1,-0.045 0.1,-0.1 v -0.9 c 0,-0.1 -0.1,0 0,0 h 1.8 c 0.1,0 0,-0.1 0,0 v 0.9 c 0,0.055 0.045,0.1 0.1,0.1 h 2 c 0.055,0 0.1,-0.045 0.1,-0.1 v -0.9 c 0,-0.1 -0.1,0 0,0 h 1.8 c 0.1,0 0,-0.1 0,0 v 0.9 c 0,0.055 0.045,0.1 0.1,0.1 h 2 c 0.055,0 0.1,-0.045 0.1,-0.1 v -0.9 c 0,-0.1 -0.1,0 0,0 h 1.8 c 0.1,0 0,-0.1 0,0 v 0.9 c 0,0.055 0.045,0.1 0.1,0.1 h 2 c 0.055,0 0.1,-0.045 0.1,-0.1 v -0.9 c 0,-0.1 -0.1,0 0,0 h 1.8 c 0.1,0 0,-0.1 0,0 v 0.9 c 0,0.055 0.045,0.1 0.1,0.1 h 2 c 0.055,0 0.1,-0.045 0.1,-0.1 v -0.9 c 0,-0.1 -0.1,0 0,0 h 1.8 c 0.1,0 0,-0.1 0,0 v 0.9 c 0,0.055 0.045,0.1 0.1,0.1 h 2 c 0.055,0 0.1,-0.045 0.1,-0.1 v -0.9 c 0,-0.1 -0.1,0 0,0 h 1.8 c 0.1,0 0,-0.1 0,0 v 0.9 c 0,0.055 0.045,0.1 0.1,0.1 h 2 c 0.055,0 0.1,-0.045 0.1,-0.1 v -0.9 c 0,-0.1 -0.1,0 0,0 h 1.8 c 0.1,0 0,-0.1 0,0 v 0.9 c 0,0.055 0.045,0.1 0.1,0.1 h 2 c 0.055,0 0.1,-0.045 0.1,-0.1 v -0.9 c 0,-0.1 -0.1,0 0,0 h 1.8 c 0.1,0 0,-0.1 0,0 v 0.9 c 0,0.055 0.045,0.1 0.1,0.1 h 2 c 0.055,0 0.1,-0.045 0.1,-0.1 v -0.9 c 0,-0.1 -0.1,0 0,0 h 1.8 c 0.1,0 0,-0.1 0,0 v 0.9 c 0,0.055 0.045,0.1 0.1,0.1 h 2 c 0.055,0 0.1,-0.045 0.1,-0.1 v -1 -3.4 c 0,-0.1 -0.1,0 0,0 h 0.9 c 0.055,0 0.1,-0.045 0.1,-0.1 v -2 c 0,-0.055 -0.045,-0.1 -0.1,-0.1 h -0.9 c -0.1,0 0,0.1 0,0 v -1.8 c 0,-0.1 -0.1,0 0,0 h 0.9 c 0.055,0 0.1,-0.045 0.1,-0.1 v -2 c 0,-0.055 -0.045,-0.1 -0.1,-0.1 h -0.9 c -0.1,0 0,0.1 0,0 v -1.8 c 0,-0.1 -0.1,0 0,0 h 0.9 c 0.055,0 0.1,-0.045 0.1,-0.1 v -2 c 0,-0.055 -0.045,-0.1 -0.1,-0.1 h -0.9 c -0.1,0 0,0.1 0,0 v -1.8 c 0,-0.1 -0.1,0 0,0 h 0.9 c 0.055,0 0.1,-0.045 0.1,-0.1 v -2 c 0,-0.055 -0.045,-0.1 -0.1,-0.1 h -0.9 c -0.1,0 0,0.1 0,0 v -1.8 c 0,-0.1 -0.1,0 0,0 h 0.9 c 0.055,0 0.1,-0.045 0.1,-0.1 v -2 c 0,-0.055 -0.045,-0.1 -0.1,-0.1 h -0.9 c -0.1,0 0,0.1 0,0 v -3.4 -1 c 0,-0.055 -0.045,-0.1 -0.1,-0.1 h -2 c -0.055,0 -0.1,0.045 -0.1,0.1 v 0.9 c 0,0.1 0.1,0 0,0 h -1.8 c -0.1,0 0,0.1 0,0 v -0.9 c 0,-0.055 -0.045,-0.1 -0.1,-0.1 h -2 c -0.055,0 -0.1,0.045 -0.1,0.1 v 0.9 c 0,0.1 0.1,0 0,0 h -1.8 c -0.1,0 0,0.1 0,0 v -0.9 c 0,-0.055 -0.045,-0.1 -0.1,-0.1 h -2 c -0.055,0 -0.1,0.045 -0.1,0.1 v 0.9 c 0,0.1 0.1,0 0,0 h -1.8 c -0.1,0 0,0.1 0,0 v -0.9 c 0,-0.055 -0.045,-0.1 -0.1,-0.1 h -2 c -0.055,0 -0.1,0.045 -0.1,0.1 v 0.9 c 0,0.1 0.1,0 0,0 h -1.8 c -0.1,0 0,0.1 0,0 v -0.9 c 0,-0.055 -0.045,-0.1 -0.1,-0.1 h -2 c -0.055,0 -0.1,0.045 -0.1,0.1 v 0.9 c 0,0.1 0.1,0 0,0 h -1.8 c -0.1,0 0,0.1 0,0 v -0.9 c 0,-0.055 -0.045,-0.1 -0.1,-0.1 h -2 c -0.055,0 -0.1,0.045 -0.1,0.1 v 0.9 c 0,0.1 0.1,0 0,0 h -1.8 c -0.1,0 0,0.1 0,0 v -0.9 c 0,-0.055 -0.045,-0.1 -0.1,-0.1 h -2 c -0.055,0 -0.1,0.045 -0.1,0.1 v 0.9 c 0,0.1 0.1,0 0,0 h -1.8 c -0.1,0 0,0.1 0,0 v -0.9 c 0,-0.055 -0.045,-0.1 -0.1,-0.1 h -2 c -0.055,0 -0.1,0.045 -0.1,0.1 v 0.9 c 0,0.1 0.1,0 0,0 h -1.8 c -0.1,0 0,0.1 0,0 v -0.9 c 0,-0.055 -0.045,-0.1 -0.1,-0.1 h -2 c -0.055,0 -0.1,0.045 -0.1,0.1 v 0.9 c 0,0.1 0.1,0 0,0 h -1.8 c -0.1,0 0,0.1 0,0 v -0.9 c 0,-0.055 -0.045,-0.1 -0.1,-0.1 h -2 c -0.055,0 -0.1,0.045 -0.1,0.1 v 0.9 c 0,0.1 0.1,0 0,0 h -1.8 c -0.1,0 0,0.1 0,0 v -0.9 c 0,-0.055 -0.045,-0.1 -0.1,-0.1 h -2 c -0.055,0 -0.1,0.045 -0.1,0.1 v 0.9 c 0,0.1 0.1,0 0,0 l -4.906492,-0.03058 c 0,0 1.005034,-0.184315 1.005907,1.775472 5.19e-4,1.164034 -0.02915,1.659163 -0.986769,1.655936 -1.567913,-0.0053 -1.561341,0.0075 -3.531026,0.0032 -2.112001,-0.0046 -1.958684,-0.01365 -3.408651,-0.01606 -1.055911,-0.0018 -1.063984,-0.542845 -1.055884,-1.675728 0.01217,-1.702356 0.969471,-1.715551 0.969471,-1.715551 L 74.2,83.70002 c -0.1,0 0,0.1 0,0 v -0.9 c 0,-0.055 -0.045,-0.1 -0.1,-0.1 h -2 c -0.055,0 -0.1,0.045 -0.1,0.1 v 0.9 c 0,0.1 0.1,0 0,0 h -1.8 c -0.1,0 0,0.1 0,0 v -0.9 c 0,-0.055 -0.045,-0.1 -0.1,-0.1 h -2 c -0.055,0 -0.1,0.045 -0.1,0.1 v 0.9 c 0,0.1 0.1,0 0,0 h -1.8 c -0.1,0 0,0.1 0,0 v -0.9 c 0,-0.055 -0.045,-0.1 -0.1,-0.1 h -2 c -0.055,0 -0.1,0.045 -0.1,0.1 v 1 3.4 c 0,0.1 0.1,0 0,0 h -0.9 c -0.055,0 -0.1,0.045 -0.1,0.1 v 2 c 0,0.055 0.045,0.1 0.1,0.1 H 64 c 0.1,0 0,-0.1 0,0 v 1.8 c 0,0.1 0.1,0 0,0 h -0.9 c -0.055,0 -0.1,0.045 -0.1,0.1 v 2 c 0,0.055 0.045,0.1 0.1,0.1 H 64 c 0.1,0 0,-0.1 0,0 v 1.8 c 0,0.1 0.1,0 0,0 h -0.9 c -0.055,0 -0.1,0.045 -0.1,0.1 v 2 c 0,0.055 0.045,0.1 0.1,0.1 H 64 c 0.1,0 0,-0.1 0,0 v 1.8 c 0,0.1 0.1,0 0,0 h -0.9 c -0.055,0 -0.1,0.045 -0.1,0.1 v 2 c 0,0.055 0.045,0.1 0.1,0.1 H 64 c 0.1,0 0,-0.1 0,0 v 1.8 c 0,0.1 0.1,0 0,0 h -0.9 c -0.055,0 -0.1,0.045 -0.1,0.1 v 2 c 0,0.055 0.045,0.1 0.1,0.1 H 64 c 0.1,0 0,-0.1 0,0 v 3.4 1 c 0,0.055 0.045,0.1 0.1,0.1"
       stroke="rgb(0,0,0)"
       stroke-width="0.2"
       id="path29669"
       style="stroke:#ff0000"
       sodipodi:nodetypes="csssssssssssssssssssssssssssssssssssssssssssssssssssssssssssssssssssssssssssssssssssssssssssssssssssssssssssssssssssssssssssssssssssssssssscsssssssssssssssssssssssssssssssssssssssscsssssssssssssssssssssssssssssssssssssssssssssssssssssssssssssssssssssssssssssssssssssccsssssccssssssssssssssssssssscsssssssssssssssssssssssssssssssssssssssscsc" /></g><g
     id="p-4"
     style="fill:none;stroke-linecap:round;stroke-linejoin:round"
     transform="translate(-1.4,-3.8)"><text
       transform="translate(36.4,94.4)"
       style="font-style:normal;font-weight:normal;font-family:sans-serif;fill:#ff00ff;stroke:none"
       font-size="4px"
       text-anchor="middle"
       dominant-baseline="hanging"
       id="text29672">Wall 3</text><path
       d="m 11.4,109.9 h 2 c 0.055,0 0.1,-0.045 0.1,-0.1 v -0.9 c 0,-0.1 -0.1,0 0,0 h 1.8 c 0.1,0 0,-0.1 0,0 v 0.9 c 0,0.055 0.045,0.1 0.1,0.1 h 2 c 0.055,0 0.1,-0.045 0.1,-0.1 v -0.9 c 0,-0.1 -0.1,0 0,0 h 1.8 c 0.1,0 0,-0.1 0,0 v 0.9 c 0,0.055 0.045,0.1 0.1,0.1 h 2 c 0.055,0 0.1,-0.045 0.1,-0.1 v -0.9 c 0,-0.1 -0.1,0 0,0 h 1.8 c 0.1,0 0,-0.1 0,0 v 0.9 c 0,0.055 0.045,0.1 0.1,0.1 h 2 c 0.055,0 0.1,-0.045 0.1,-0.1 v -0.9 c 0,-0.1 -0.1,0 0,0 h 1.8 c 0.1,0 0,-0.1 0,0 v 0.9 c 0,0.055 0.045,0.1 0.1,0.1 h 2 c 0.055,0 0.1,-0.045 0.1,-0.1 v -0.9 c 0,-0.1 -0.1,0 0,0 h 1.8 c 0.1,0 0,-0.1 0,0 v 0.9 c 0,0.055 0.045,0.1 0.1,0.1 h 2 c 0.055,0 0.1,-0.045 0.1,-0.1 v -0.9 c 0,-0.1 -0.1,0 0,0 h 1.8 c 0.1,0 0,-0.1 0,0 v 0.9 c 0,0.055 0.045,0.1 0.1,0.1 h 2 c 0.055,0 0.1,-0.045 0.1,-0.1 v -0.9 c 0,-0.1 -0.1,0 0,0 h 1.8 c 0.1,0 0,-0.1 0,0 v 0.9 c 0,0.055 0.045,0.1 0.1,0.1 h 2 c 0.055,0 0.1,-0.045 0.1,-0.1 v -0.9 c 0,-0.1 -0.1,0 0,0 h 1.8 c 0.1,0 0,-0.1 0,0 v 0.9 c 0,0.055 0.045,0.1 0.1,0.1 h 2 c 0.055,0 0.1,-0.045 0.1,-0.1 v -0.9 c 0,-0.1 -0.1,0 0,0 h 1.8 c 0.1,0 0,-0.1 0,0 v 0.9 c 0,0.055 0.045,0.1 0.1,0.1 h 2 c 0.055,0 0.1,-0.045 0.1,-0.1 v -0.9 c 0,-0.1 -0.1,0 0,0 h 1.8 c 0.1,0 0,-0.1 0,0 v 0.9 c 0,0.055 0.045,0.1 0.1,0.1 h 2 c 0.055,0 0.1,-0.045 0.1,-0.1 v -0.9 c 0,-0.1 -0.1,0 0,0 h 1.8 c 0.1,0 0,-0.1 0,0 v 0.9 c 0,0.055 0.045,0.1 0.1,0.1 h 2 c 0.055,0 0.1,-0.045 0.1,-0.1 v -0.9 c 0,-0.1 -0.1,0 0,0 h 1.8 c 0.1,0 0,-0.1 0,0 v 0.9 c 0,0.055 0.045,0.1 0.1,0.1 h 2 1 c 0.055,0 0.1,-0.045 0.1,-0.1 v -1 -3.5 c 0,-0.055 -0.045,-0.1 -0.1,-0.1 h -0.9 c -0.1,0 0,0.1 0,0 v -1.8 c 0,-0.1 -0.1,0 0,0 h 0.9 c 0.055,0 0.1,-0.045 0.1,-0.1 v -2 c 0,-0.055 -0.045,-0.1 -0.1,-0.1 h -0.9 c -0.1,0 0,0.1 0,0 v -1.8 c 0,-0.1 -0.1,0 0,0 h 0.9 c 0.055,0 0.1,-0.045 0.1,-0.1 v -2 c 0,-0.055 -0.045,-0.1 -0.1,-0.1 h -0.9 c -0.1,0 0,0.1 0,0 v -1.8 c 0,-0.1 -0.1,0 0,0 h 0.9 c 0.055,0 0.1,-0.045 0.1,-0.1 v -2 c 0,-0.055 -0.045,-0.1 -0.1,-0.1 h -0.9 c -0.1,0 0,0.1 0,0 v -1.8 c 0,-0.1 -0.1,0 0,0 h 0.9 c 0.055,0 0.1,-0.045 0.1,-0.1 v -2 c 0,-0.055 -0.045,-0.1 -0.1,-0.1 h -0.9 c -0.1,0 0,0.1 0,0 v -1.8 c 0,-0.1 -0.1,0 0,0 h 0.9 c 0.055,0 0.1,-0.045 0.1,-0.1 v -3.5 -1 c 0,-0.055 -0.045,-0.1 -0.1,-0.1 h -1 -2 c -0.055,0 -0.1,0.045 -0.1,0.1 v 0.9 c 0,0.1 0.1,0 0,0 h -1.8 c -0.1,0 0,0.1 0,0 v -0.9 c 0,-0.055 -0.045,-0.1 -0.1,-0.1 h -2 c -0.055,0 -0.1,0.045 -0.1,0.1 v 0.9 c 0,0.1 0.1,0 0,0 h -1.8 c -0.1,0 0,0.1 0,0 v -0.9 c 0,-0.055 -0.045,-0.1 -0.1,-0.1 h -2 c -0.055,0 -0.1,0.045 -0.1,0.1 v 0.9 c 0,0.1 0.1,0 0,0 h -1.8 c -0.1,0 0,0.1 0,0 v -0.9 c 0,-0.055 -0.045,-0.1 -0.1,-0.1 h -2 c -0.055,0 -0.1,0.045 -0.1,0.1 v 0.9 c 0,0.1 0.1,0 0,0 h -1.8 c -0.1,0 0,0.1 0,0 v -0.9 c 0,-0.055 -0.045,-0.1 -0.1,-0.1 h -2 c -0.055,0 -0.1,0.045 -0.1,0.1 v 0.9 c 0,0.1 0.1,0 0,0 h -1.8 c -0.1,0 0,0.1 0,0 v -0.9 c 0,-0.055 -0.045,-0.1 -0.1,-0.1 h -2 c -0.055,0 -0.1,0.045 -0.1,0.1 v 0.9 c 0,0.1 0.1,0 0,0 h -1.8 c -0.1,0 0,0.1 0,0 v -0.9 c 0,-0.055 -0.045,-0.1 -0.1,-0.1 h -2 c -0.055,0 -0.1,0.045 -0.1,0.1 v 0.9 c 0,0.1 0.1,0 0,0 h -1.8 c -0.1,0 0,0.1 0,0 v -0.9 c 0,-0.055 -0.045,-0.1 -0.1,-0.1 h -2 c -0.055,0 -0.1,0.045 -0.1,0.1 v 0.9 c 0,0.1 0.1,0 0,0 h -1.8 c -0.1,0 0,0.1 0,0 v -0.9 c 0,-0.055 -0.045,-0.1 -0.1,-0.1 h -2 c -0.055,0 -0.1,0.045 -0.1,0.1 v 0.9 c 0,0.1 0.1,0 0,0 h -1.8 c -0.1,0 0,0.1 0,0 v -0.9 c 0,-0.055 -0.045,-0.1 -0.1,-0.1 h -2 c -0.055,0 -0.1,0.045 -0.1,0.1 v 0.9 c 0,0.1 0.1,0 0,0 h -1.8 c -0.1,0 0,0.1 0,0 v -0.9 c 0,-0.055 -0.045,-0.1 -0.1,-0.1 h -2 c -0.055,0 -0.1,0.045 -0.1,0.1 v 0.9 c 0,0.1 0.1,0 0,0 h -1.8 c -0.1,0 0,0.1 0,0 v -0.9 c 0,-0.055 -0.045,-0.1 -0.1,-0.1 h -2 c -0.055,0 -0.1,0.045 -0.1,0.1 v 0.9 c 0,0.1 0.1,0 0,0 h -1.8 c -0.1,0 0,0.1 0,0 v -0.9 c 0,-0.055 -0.045,-0.1 -0.1,-0.1 h -2 -1 c -0.055,0 -0.1,0.045 -0.1,0.1 v 1 3.5 c 0,0.055 0.045,0.1 0.1,0.1 h 0.9 c 0.1,0 0,-0.1 0,0 v 1.8 c 0,0.1 0.1,0 0,0 h -0.9 c -0.055,0 -0.1,0.045 -0.1,0.1 v 2 c 0,0.055 0.045,0.1 0.1,0.1 h 0.9 c 0.1,0 0,-0.1 0,0 v 1.8 c 0,0.1 0.1,0 0,0 h -0.9 c -0.055,0 -0.1,0.045 -0.1,0.1 v 2 c 0,0.055 0.045,0.1 0.1,0.1 h 0.9 c 0.1,0 0,-0.1 0,0 v 1.8 c 0,0.1 0.1,0 0,0 h -0.9 c -0.055,0 -0.1,0.045 -0.1,0.1 v 2 c 0,0.055 0.045,0.1 0.1,0.1 h 0.9 c 0.1,0 0,-0.1 0,0 v 1.8 c 0,0.1 0.1,0 0,0 h -0.9 c -0.055,0 -0.1,0.045 -0.1,0.1 v 2 c 0,0.055 0.045,0.1 0.1,0.1 h 0.9 c 0.1,0 0,-0.1 0,0 v 1.8 c 0,0.1 0.1,0 0,0 h -0.9 c -0.055,0 -0.1,0.045 -0.1,0.1 v 3.5 1 c 0,0.055 0.045,0.1 0.1,0.1 h 1"
       stroke="rgb(0,0,0)"
       stroke-width="0.2"
       id="path29674"
       style="stroke:#ff0000" /></g><g
     id="p-5"
     style="fill:none;stroke-linecap:round;stroke-linejoin:round"
     transform="translate(-1.4,-6.1)"><text
       transform="translate(36.4,44.2)"
       style="font-style:normal;font-weight:normal;font-family:sans-serif;fill:#ff00ff;stroke:none"
       font-size="4px"
       text-anchor="middle"
       dominant-baseline="hanging"
       id="text29677">Top</text><path
       d="m 11.4,81.2 h 1.9 c 0.1,0 0,-0.1 0,0 v 0.9 c 0,0.055 0.045,0.1 0.1,0.1 h 2 c 0.055,0 0.1,-0.045 0.1,-0.1 v -0.9 c 0,-0.1 -0.1,0 0,0 h 1.8 c 0.1,0 0,-0.1 0,0 v 0.9 c 0,0.055 0.045,0.1 0.1,0.1 h 2 c 0.055,0 0.1,-0.045 0.1,-0.1 v -0.9 c 0,-0.1 -0.1,0 0,0 h 1.8 c 0.1,0 0,-0.1 0,0 v 0.9 c 0,0.055 0.045,0.1 0.1,0.1 h 2 c 0.055,0 0.1,-0.045 0.1,-0.1 v -0.9 c 0,-0.1 -0.1,0 0,0 h 1.8 c 0.1,0 0,-0.1 0,0 v 0.9 c 0,0.055 0.045,0.1 0.1,0.1 h 2 c 0.055,0 0.1,-0.045 0.1,-0.1 v -0.9 c 0,-0.1 -0.1,0 0,0 h 1.8 c 0.1,0 0,-0.1 0,0 v 0.9 c 0,0.055 0.045,0.1 0.1,0.1 h 2 c 0.055,0 0.1,-0.045 0.1,-0.1 v -0.9 c 0,-0.1 -0.1,0 0,0 h 1.8 c 0.1,0 0,-0.1 0,0 v 0.9 c 0,0.055 0.045,0.1 0.1,0.1 h 2 c 0.055,0 0.1,-0.045 0.1,-0.1 v -0.9 c 0,-0.1 -0.1,0 0,0 h 1.8 c 0.1,0 0,-0.1 0,0 v 0.9 c 0,0.055 0.045,0.1 0.1,0.1 h 2 c 0.055,0 0.1,-0.045 0.1,-0.1 v -0.9 c 0,-0.1 -0.1,0 0,0 h 1.8 c 0.1,0 0,-0.1 0,0 v 0.9 c 0,0.055 0.045,0.1 0.1,0.1 h 2 c 0.055,0 0.1,-0.045 0.1,-0.1 v -0.9 c 0,-0.1 -0.1,0 0,0 h 1.8 c 0.1,0 0,-0.1 0,0 v 0.9 c 0,0.055 0.045,0.1 0.1,0.1 h 2 c 0.055,0 0.1,-0.045 0.1,-0.1 v -0.9 c 0,-0.1 -0.1,0 0,0 h 1.8 c 0.1,0 0,-0.1 0,0 v 0.9 c 0,0.055 0.045,0.1 0.1,0.1 h 2 c 0.055,0 0.1,-0.045 0.1,-0.1 v -0.9 c 0,-0.1 -0.1,0 0,0 h 1.8 c 0.1,0 0,-0.1 0,0 v 0.9 c 0,0.055 0.045,0.1 0.1,0.1 h 2 c 0.055,0 0.1,-0.045 0.1,-0.1 v -0.9 c 0,-0.1 -0.1,0 0,0 h 1.8 c 0.1,0 0,-0.1 0,0 v 0.9 c 0,0.055 0.045,0.1 0.1,0.1 h 2 c 0.055,0 0.1,-0.045 0.1,-0.1 v -0.9 c 0,-0.1 -0.1,0 0,0 h 1.9 c 0.055,0 0.1,-0.045 0.1,-0.1 v -1.9 c 0,-0.1 -0.1,0 0,0 h 0.9 c 0.055,0 0.1,-0.045 0.1,-0.1 v -2 C 62.5,77.045 62.455,77 62.4,77 h -0.9 c -0.1,0 0,0.1 0,0 v -1.8 c 0,-0.1 -0.1,0 0,0 h 0.9 c 0.055,0 0.1,-0.045 0.1,-0.1 v -2 C 62.5,73.045 62.455,73 62.4,73 h -0.9 c -0.1,0 0,0.1 0,0 v -1.8 c 0,-0.1 -0.1,0 0,0 h 0.9 c 0.055,0 0.1,-0.045 0.1,-0.1 v -2 C 62.5,69.045 62.455,69 62.4,69 h -0.9 c -0.1,0 0,0.1 0,0 0.0063,-6.873425 -0.01329,-10.109238 0,-17.8 0,-0.1 -0.1,0 0,0 h 0.9 c 0.055,0 0.1,-0.045 0.1,-0.1 v -2 C 62.5,49.045 62.455,49 62.4,49 h -0.9 c -0.1,0 0,0.1 0,0 v -1.8 c 0,-0.1 -0.1,0 0,0 h 0.9 c 0.055,0 0.1,-0.045 0.1,-0.1 v -2 C 62.5,45.045 62.455,45 62.4,45 h -0.9 c -0.1,0 0,0.1 0,0 v -1.8 c 0,-0.1 -0.1,0 0,0 h 0.9 c 0.055,0 0.1,-0.045 0.1,-0.1 v -2 C 62.5,41.045 62.455,41 62.4,41 h -0.9 c -0.1,0 0,0.1 0,0 v -1.8 c 0,-0.1 -0.1,0 0,0 h 0.9 c 0.055,0 0.1,-0.045 0.1,-0.1 v -2 C 62.5,37.045 62.455,37 62.4,37 h -0.9 c -0.1,0 0,0.1 0,0 v -1.8 c 0,-0.1 -0.1,0 0,0 h 0.9 c 0.055,0 0.1,-0.045 0.1,-0.1 v -2 C 62.5,33.045 62.455,33 62.4,33 h -0.9 c -0.1,0 0,0.1 0,0 v -1.8 c 0,-0.1 -0.1,0 0,0 h 0.9 c 0.055,0 0.1,-0.045 0.1,-0.1 v -2 C 62.5,29.045 62.455,29 62.4,29 h -0.9 c -0.1,0 0,0.1 0,0 v -1.8 c 0,-0.1 -0.1,0 0,0 h 0.9 c 0.055,0 0.1,-0.045 0.1,-0.1 v -2 C 62.5,25.045 62.455,25 62.4,25 h -0.9 c -0.1,0 0,0.1 0,0 v -1.8 c 0,-0.1 -0.1,0 0,0 h 0.9 c 0.055,0 0.1,-0.045 0.1,-0.1 v -2 C 62.5,21.045 62.455,21 62.4,21 h -0.9 c -0.1,0 0,0.1 0,0 v -1.8 c 0,-0.1 -0.1,0 0,0 h 0.9 c 0.055,0 0.1,-0.045 0.1,-0.1 v -2 C 62.5,17.045 62.455,17 62.4,17 h -0.9 c -0.1,0 0,0.1 0,0 v -1.8 c 0,-0.1 -0.1,0 0,0 h 0.9 c 0.055,0 0.1,-0.045 0.1,-0.1 v -2 C 62.5,13.045 62.455,13 62.4,13 h -0.9 c -0.1,0 0,0.1 0,0 V 11.1 C 61.5,11.045 61.455,11 61.4,11 h -1.9 c -0.1,0 0,0.1 0,0 V 10.1 C 59.5,10.045 59.455,10 59.4,10 h -2 c -0.055,0 -0.1,0.045 -0.1,0.1 V 11 c 0,0.1 0.1,0 0,0 h -1.8 c -0.1,0 0,0.1 0,0 V 10.1 C 55.5,10.045 55.455,10 55.4,10 h -2 c -0.055,0 -0.1,0.045 -0.1,0.1 V 11 c 0,0.1 0.1,0 0,0 h -1.8 c -0.1,0 0,0.1 0,0 V 10.1 C 51.5,10.045 51.455,10 51.4,10 h -2 c -0.055,0 -0.1,0.045 -0.1,0.1 V 11 c 0,0.1 0.1,0 0,0 h -1.8 c -0.1,0 0,0.1 0,0 V 10.1 C 47.5,10.045 47.455,10 47.4,10 h -2 c -0.055,0 -0.1,0.045 -0.1,0.1 V 11 c 0,0.1 0.1,0 0,0 h -1.8 c -0.1,0 0,0.1 0,0 V 10.1 C 43.5,10.045 43.455,10 43.4,10 h -2 c -0.055,0 -0.1,0.045 -0.1,0.1 V 11 c 0,0.1 0.1,0 0,0 h -1.8 c -0.1,0 0,0.1 0,0 V 10.1 C 39.5,10.045 39.455,10 39.4,10 h -2 c -0.055,0 -0.1,0.045 -0.1,0.1 V 11 c 0,0.1 0.1,0 0,0 h -1.8 c -0.1,0 0,0.1 0,0 V 10.1 C 35.5,10.045 35.455,10 35.4,10 h -2 c -0.055,0 -0.1,0.045 -0.1,0.1 V 11 c 0,0.1 0.1,0 0,0 h -1.8 c -0.1,0 0,0.1 0,0 V 10.1 C 31.5,10.045 31.455,10 31.4,10 h -2 c -0.055,0 -0.1,0.045 -0.1,0.1 V 11 c 0,0.1 0.1,0 0,0 h -1.8 c -0.1,0 0,0.1 0,0 V 10.1 C 27.5,10.045 27.455,10 27.4,10 h -2 c -0.055,0 -0.1,0.045 -0.1,0.1 V 11 c 0,0.1 0.1,0 0,0 h -1.8 c -0.1,0 0,0.1 0,0 V 10.1 C 23.5,10.045 23.455,10 23.4,10 h -2 c -0.055,0 -0.1,0.045 -0.1,0.1 V 11 c 0,0.1 0.1,0 0,0 h -1.8 c -0.1,0 0,0.1 0,0 V 10.1 C 19.5,10.045 19.455,10 19.4,10 h -2 c -0.055,0 -0.1,0.045 -0.1,0.1 V 11 c 0,0.1 0.1,0 0,0 h -1.8 c -0.1,0 0,0.1 0,0 V 10.1 C 15.5,10.045 15.455,10 15.4,10 h -2 c -0.055,0 -0.1,0.045 -0.1,0.1 V 11 c 0,0.1 0.1,0 0,0 h -1.9 c -0.055,0 -0.1,0.045 -0.1,0.1 V 13 c 0,0.1 0.1,0 0,0 h -0.9 c -0.055,0 -0.1,0.045 -0.1,0.1 v 2 c 0,0.055 0.045,0.1 0.1,0.1 h 0.9 c 0.1,0 0,-0.1 0,0 V 17 c 0,0.1 0.1,0 0,0 h -0.9 c -0.055,0 -0.1,0.045 -0.1,0.1 v 2 c 0,0.055 0.045,0.1 0.1,0.1 h 0.9 c 0.1,0 0,-0.1 0,0 V 21 c 0,0.1 0.1,0 0,0 h -0.9 c -0.055,0 -0.1,0.045 -0.1,0.1 v 2 c 0,0.055 0.045,0.1 0.1,0.1 h 0.9 c 0.1,0 0,-0.1 0,0 V 25 c 0,0.1 0.1,0 0,0 h -0.9 c -0.055,0 -0.1,0.045 -0.1,0.1 v 2 c 0,0.055 0.045,0.1 0.1,0.1 h 0.9 c 0.1,0 0,-0.1 0,0 V 29 c 0,0.1 0.1,0 0,0 h -0.9 c -0.055,0 -0.1,0.045 -0.1,0.1 v 2 c 0,0.055 0.045,0.1 0.1,0.1 h 0.9 c 0.1,0 0,-0.1 0,0 V 33 c 0,0.1 0.1,0 0,0 h -0.9 c -0.055,0 -0.1,0.045 -0.1,0.1 v 2 c 0,0.055 0.045,0.1 0.1,0.1 h 0.9 c 0.1,0 0,-0.1 0,0 V 37 c 0,0.1 0.1,0 0,0 h -0.9 c -0.055,0 -0.1,0.045 -0.1,0.1 v 2 c 0,0.055 0.045,0.1 0.1,0.1 h 0.9 c 0.1,0 0,-0.1 0,0 V 41 c 0,0.1 0.1,0 0,0 h -0.9 c -0.055,0 -0.1,0.045 -0.1,0.1 v 2 c 0,0.055 0.045,0.1 0.1,0.1 h 0.9 c 0.1,0 0,-0.1 0,0 V 45 c 0,0.1 0.1,0 0,0 h -0.9 c -0.055,0 -0.1,0.045 -0.1,0.1 v 2 c 0,0.055 0.045,0.1 0.1,0.1 h 0.9 c 0.1,0 0,-0.1 0,0 V 49 c 0,0.1 0.1,0 0,0 h -0.9 c -0.055,0 -0.1,0.045 -0.1,0.1 v 2 c 0,0.055 0.045,0.1 0.1,0.1 h 0.9 c 0.1,0 0,-0.1 0,0 V 53 c 0,0.1 0.1,0 0,0 h -0.9 c -0.055,0 -0.1,0.045 -0.1,0.1 v 2 c 0,0.055 0.045,0.1 0.1,0.1 h 0.9 c 0.1,0 0,-0.1 0,0 V 57 c 0,0.1 0.1,0 0,0 h -0.9 c -0.055,0 -0.1,0.045 -0.1,0.1 v 2 c 0,0.055 0.045,0.1 0.1,0.1 h 0.9 c 0.1,0 0,-0.1 0,0 V 61 c 0,0.1 0.1,0 0,0 h -0.9 c -0.055,0 -0.1,0.045 -0.1,0.1 v 2 c 0,0.055 0.045,0.1 0.1,0.1 h 0.9 c 0.1,0 0,-0.1 0,0 V 65 c 0,0.1 0.1,0 0,0 h -0.9 c -0.055,0 -0.1,0.045 -0.1,0.1 v 2 c 0,0.055 0.045,0.1 0.1,0.1 h 0.9 c 0.1,0 0,-0.1 0,0 V 69 c 0,0.1 0.1,0 0,0 h -0.9 c -0.055,0 -0.1,0.045 -0.1,0.1 v 2 c 0,0.055 0.045,0.1 0.1,0.1 h 0.9 c 0.1,0 0,-0.1 0,0 V 73 c 0,0.1 0.1,0 0,0 h -0.9 c -0.055,0 -0.1,0.045 -0.1,0.1 v 2 c 0,0.055 0.045,0.1 0.1,0.1 h 0.9 c 0.1,0 0,-0.1 0,0 V 77 c 0,0.1 0.1,0 0,0 h -0.9 c -0.055,0 -0.1,0.045 -0.1,0.1 v 2 c 0,0.055 0.045,0.1 0.1,0.1 h 0.9 c 0.1,0 0,-0.1 0,0 v 1.9 c 0,0.055 0.045,0.1 0.1,0.1"
       stroke="rgb(0,0,0)"
       stroke-width="0.2"
       id="path29679"
       style="stroke:#ff0000"
       sodipodi:nodetypes="csssssssssssssssssssssssssssssssssssssssssssssssssssssssssssssssssssssssssssssssssssssssssssssssssssssssssssssssssssssssssccssssssssssssssssssssssssssssssssssssssssssssssssssssssssssssssssssssssssssssssssssssssssssssssssssssssssssssssssssssssssssssssssssssssssssssssssssssssssssssssssssssssssssssssssssssssssssssssssssssssssssssssssssssssssssssssssssssssssssssssssssssssssssssssssssssssssssssssssssssssssssssssssssssssssssssssssssssssssssssc" /></g><g
     id="p-6"
     style="fill:none;stroke-linecap:round;stroke-linejoin:round"
     transform="translate(-1.1,-6.1)"><text
       transform="translate(89.1,44.2)"
       style="font-style:normal;font-weight:normal;font-family:sans-serif;fill:#ff00ff;stroke:none"
       font-size="4px"
       text-anchor="middle"
       dominant-baseline="hanging"
       id="text29682">Bottom</text><path
       d="M 64.1,81.2 H 66 c 0.1,0 0,-0.1 0,0 v 0.9 c 0,0.055 0.045,0.1 0.1,0.1 h 2 c 0.055,0 0.1,-0.045 0.1,-0.1 v -0.9 c 0,-0.1 -0.1,0 0,0 H 70 c 0.1,0 0,-0.1 0,0 v 0.9 c 0,0.055 0.045,0.1 0.1,0.1 h 2 c 0.055,0 0.1,-0.045 0.1,-0.1 v -0.9 c 0,-0.1 -0.1,0 0,0 H 74 c 0.1,0 0,-0.1 0,0 v 0.9 c 0,0.055 0.045,0.1 0.1,0.1 h 2 c 0.055,0 0.1,-0.045 0.1,-0.1 v -0.9 c 0,-0.1 -0.1,0 0,0 H 78 c 0.1,0 0,-0.1 0,0 v 0.9 c 0,0.055 0.045,0.1 0.1,0.1 h 2 c 0.055,0 0.1,-0.045 0.1,-0.1 v -0.9 c 0,-0.1 -0.1,0 0,0 H 82 c 0.1,0 0,-0.1 0,0 v 0.9 c 0,0.055 0.045,0.1 0.1,0.1 h 2 c 0.055,0 0.1,-0.045 0.1,-0.1 v -0.9 c 0,-0.1 -0.1,0 0,0 H 86 c 0.1,0 0,-0.1 0,0 v 0.9 c 0,0.055 0.045,0.1 0.1,0.1 h 2 c 0.055,0 0.1,-0.045 0.1,-0.1 v -0.9 c 0,-0.1 -0.1,0 0,0 H 90 c 0.1,0 0,-0.1 0,0 v 0.9 c 0,0.055 0.045,0.1 0.1,0.1 h 2 c 0.055,0 0.1,-0.045 0.1,-0.1 v -0.9 c 0,-0.1 -0.1,0 0,0 H 94 c 0.1,0 0,-0.1 0,0 v 0.9 c 0,0.055 0.045,0.1 0.1,0.1 h 2 c 0.055,0 0.1,-0.045 0.1,-0.1 v -0.9 c 0,-0.1 -0.1,0 0,0 H 98 c 0.1,0 0,-0.1 0,0 v 0.9 c 0,0.055 0.045,0.1 0.1,0.1 h 2 c 0.055,0 0.1,-0.045 0.1,-0.1 v -0.9 c 0,-0.1 -0.1,0 0,0 h 1.8 c 0.1,0 0,-0.1 0,0 v 0.9 c 0,0.055 0.045,0.1 0.1,0.1 h 2 c 0.055,0 0.1,-0.045 0.1,-0.1 v -0.9 c 0,-0.1 -0.1,0 0,0 h 1.8 c 0.1,0 0,-0.1 0,0 v 0.9 c 0,0.055 0.045,0.1 0.1,0.1 h 2 c 0.055,0 0.1,-0.045 0.1,-0.1 v -0.9 c 0,-0.1 -0.1,0 0,0 h 1.8 c 0.1,0 0,-0.1 0,0 v 0.9 c 0,0.055 0.045,0.1 0.1,0.1 h 2 c 0.055,0 0.1,-0.045 0.1,-0.1 v -0.9 c 0,-0.1 -0.1,0 0,0 h 1.9 c 0.055,0 0.1,-0.045 0.1,-0.1 v -1.9 c 0,-0.1 -0.1,0 0,0 h 0.9 c 0.055,0 0.1,-0.045 0.1,-0.1 v -2 c 0,-0.055 -0.045,-0.1 -0.1,-0.1 h -0.9 c -0.1,0 0,0.1 0,0 v -1.8 c 0,-0.1 -0.1,0 0,0 h 0.9 c 0.055,0 0.1,-0.045 0.1,-0.1 v -2 c 0,-0.055 -0.045,-0.1 -0.1,-0.1 h -0.9 c -0.1,0 0,0.1 0,0 v -1.8 c 0,-0.1 -0.1,0 0,0 h 0.9 c 0.055,0 0.1,-0.045 0.1,-0.1 v -2 c 0,-0.055 -0.045,-0.1 -0.1,-0.1 h -0.9 c -0.1,0 0,0.1 0,0 v -1.8 c 0,-0.1 -0.1,0 0,0 h 0.9 c 0.055,0 0.1,-0.045 0.1,-0.1 v -2 c 0,-0.055 -0.045,-0.1 -0.1,-0.1 h -0.9 c -0.1,0 0,0.1 0,0 v -1.8 c 0,-0.1 -0.1,0 0,0 h 0.9 c 0.055,0 0.1,-0.045 0.1,-0.1 v -2 c 0,-0.055 -0.045,-0.1 -0.1,-0.1 h -0.9 c -0.1,0 0,0.1 0,0 v -1.8 c 0,-0.1 -0.1,0 0,0 h 0.9 c 0.055,0 0.1,-0.045 0.1,-0.1 v -2 c 0,-0.055 -0.045,-0.1 -0.1,-0.1 h -0.9 c -0.1,0 0,0.1 0,0 v -1.8 c 0,-0.1 -0.1,0 0,0 h 0.9 c 0.055,0 0.1,-0.045 0.1,-0.1 v -2 c 0,-0.055 -0.045,-0.1 -0.1,-0.1 h -0.9 c -0.1,0 0,0.1 0,0 v -1.8 c 0,-0.1 -0.1,0 0,0 h 0.9 c 0.055,0 0.1,-0.045 0.1,-0.1 v -2 c 0,-0.055 -0.045,-0.1 -0.1,-0.1 h -0.9 c -0.1,0 0,0.1 0,0 v -1.8 c 0,-0.1 -0.1,0 0,0 h 0.9 c 0.055,0 0.1,-0.045 0.1,-0.1 v -2 c 0,-0.055 -0.045,-0.1 -0.1,-0.1 h -0.9 c -0.1,0 0,0.1 0,0 v -1.8 c 0,-0.1 -0.1,0 0,0 h 0.9 c 0.055,0 0.1,-0.045 0.1,-0.1 v -2 c 0,-0.055 -0.045,-0.1 -0.1,-0.1 h -0.9 c -0.1,0 0,0.1 0,0 v -1.8 c 0,-0.1 -0.1,0 0,0 h 0.9 c 0.055,0 0.1,-0.045 0.1,-0.1 v -2 c 0,-0.055 -0.045,-0.1 -0.1,-0.1 h -0.9 c -0.1,0 0,0.1 0,0 v -1.8 c 0,-0.1 -0.1,0 0,0 h 0.9 c 0.055,0 0.1,-0.045 0.1,-0.1 v -2 c 0,-0.055 -0.045,-0.1 -0.1,-0.1 h -0.9 c -0.1,0 0,0.1 0,0 v -1.8 c 0,-0.1 -0.1,0 0,0 h 0.9 c 0.055,0 0.1,-0.045 0.1,-0.1 v -2 c 0,-0.055 -0.045,-0.1 -0.1,-0.1 h -0.9 c -0.1,0 0,0.1 0,0 v -1.8 c 0,-0.1 -0.1,0 0,0 h 0.9 c 0.055,0 0.1,-0.045 0.1,-0.1 v -2 c 0,-0.055 -0.045,-0.1 -0.1,-0.1 h -0.9 c -0.1,0 0,0.1 0,0 v -1.8 c 0,-0.1 -0.1,0 0,0 h 0.9 c 0.055,0 0.1,-0.045 0.1,-0.1 v -2 c 0,-0.055 -0.045,-0.1 -0.1,-0.1 h -0.9 c -0.1,0 0,0.1 0,0 v -1.8 c 0,-0.1 -0.1,0 0,0 h 0.9 c 0.055,0 0.1,-0.045 0.1,-0.1 v -2 c 0,-0.055 -0.045,-0.1 -0.1,-0.1 h -0.9 c -0.1,0 0,0.1 0,0 v -1.8 c 0,-0.1 -0.1,0 0,0 h 0.9 c 0.055,0 0.1,-0.045 0.1,-0.1 v -2 c 0,-0.055 -0.045,-0.1 -0.1,-0.1 h -0.9 c -0.1,0 0,0.1 0,0 v -1.9 c 0,-0.055 -0.045,-0.1 -0.1,-0.1 h -1.9 c -0.1,0 0,0.1 0,0 v -0.9 c 0,-0.055 -0.045,-0.1 -0.1,-0.1 h -2 c -0.055,0 -0.1,0.045 -0.1,0.1 V 11 c 0,0.1 0.1,0 0,0 h -1.8 c -0.1,0 0,0.1 0,0 v -0.9 c 0,-0.055 -0.045,-0.1 -0.1,-0.1 h -2 c -0.055,0 -0.1,0.045 -0.1,0.1 V 11 c 0,0.1 0.1,0 0,0 h -1.8 c -0.1,0 0,0.1 0,0 v -0.9 c 0,-0.055 -0.045,-0.1 -0.1,-0.1 h -2 c -0.055,0 -0.1,0.045 -0.1,0.1 V 11 c 0,0.1 0.1,0 0,0 h -1.8 c -0.1,0 0,0.1 0,0 v -0.9 c 0,-0.055 -0.045,-0.1 -0.1,-0.1 h -2 C 98.045,10 98,10.045 98,10.1 V 11 c 0,0.1 0.1,0 0,0 h -1.8 c -0.1,0 0,0.1 0,0 V 10.1 C 96.2,10.045 96.155,10 96.1,10 h -2 C 94.045,10 94,10.045 94,10.1 V 11 c 0,0.1 0.1,0 0,0 h -1.8 c -0.1,0 0,0.1 0,0 V 10.1 C 92.2,10.045 92.155,10 92.1,10 h -2 C 90.045,10 90,10.045 90,10.1 V 11 c 0,0.1 0.1,0 0,0 h -1.8 c -0.1,0 0,0.1 0,0 V 10.1 C 88.2,10.045 88.155,10 88.1,10 h -2 C 86.045,10 86,10.045 86,10.1 V 11 c 0,0.1 0.1,0 0,0 h -1.8 c -0.1,0 0,0.1 0,0 V 10.1 C 84.2,10.045 84.155,10 84.1,10 h -2 C 82.045,10 82,10.045 82,10.1 V 11 c 0,0.1 0.1,0 0,0 h -1.8 c -0.1,0 0,0.1 0,0 V 10.1 C 80.2,10.045 80.155,10 80.1,10 h -2 C 78.045,10 78,10.045 78,10.1 V 11 c 0,0.1 0.1,0 0,0 h -1.8 c -0.1,0 0,0.1 0,0 V 10.1 C 76.2,10.045 76.155,10 76.1,10 h -2 C 74.045,10 74,10.045 74,10.1 V 11 c 0,0.1 0.1,0 0,0 h -1.8 c -0.1,0 0,0.1 0,0 V 10.1 C 72.2,10.045 72.155,10 72.1,10 h -2 C 70.045,10 70,10.045 70,10.1 V 11 c 0,0.1 0.1,0 0,0 h -1.8 c -0.1,0 0,0.1 0,0 V 10.1 C 68.2,10.045 68.155,10 68.1,10 h -2 C 66.045,10 66,10.045 66,10.1 V 11 c 0,0.1 0.1,0 0,0 H 64.1 C 64.045,11 64,11.045 64,11.1 V 13 c 0,0.1 0.1,0 0,0 H 63.1 C 63.045,13 63,13.045 63,13.1 v 2 c 0,0.055 0.045,0.1 0.1,0.1 H 64 c 0.1,0 0,-0.1 0,0 V 17 c 0,0.1 0.1,0 0,0 H 63.1 C 63.045,17 63,17.045 63,17.1 v 2 c 0,0.055 0.045,0.1 0.1,0.1 H 64 c 0.1,0 0,-0.1 0,0 V 21 c 0,0.1 0.1,0 0,0 H 63.1 C 63.045,21 63,21.045 63,21.1 v 2 c 0,0.055 0.045,0.1 0.1,0.1 H 64 c 0.1,0 0,-0.1 0,0 V 25 c 0,0.1 0.1,0 0,0 H 63.1 C 63.045,25 63,25.045 63,25.1 v 2 c 0,0.055 0.045,0.1 0.1,0.1 H 64 c 0.1,0 0,-0.1 0,0 V 29 c 0,0.1 0.1,0 0,0 H 63.1 C 63.045,29 63,29.045 63,29.1 v 2 c 0,0.055 0.045,0.1 0.1,0.1 H 64 c 0.1,0 0,-0.1 0,0 V 33 c 0,0.1 0.1,0 0,0 H 63.1 C 63.045,33 63,33.045 63,33.1 v 2 c 0,0.055 0.045,0.1 0.1,0.1 H 64 c 0.1,0 0,-0.1 0,0 V 37 c 0,0.1 0.1,0 0,0 H 63.1 C 63.045,37 63,37.045 63,37.1 v 2 c 0,0.055 0.045,0.1 0.1,0.1 H 64 c 0.1,0 0,-0.1 0,0 V 41 c 0,0.1 0.1,0 0,0 H 63.1 C 63.045,41 63,41.045 63,41.1 v 2 c 0,0.055 0.045,0.1 0.1,0.1 H 64 c 0.1,0 0,-0.1 0,0 V 45 c 0,0.1 0.1,0 0,0 H 63.1 C 63.045,45 63,45.045 63,45.1 v 2 c 0,0.055 0.045,0.1 0.1,0.1 H 64 c 0.1,0 0,-0.1 0,0 V 49 c 0,0.1 0.1,0 0,0 H 63.1 C 63.045,49 63,49.045 63,49.1 v 2 c 0,0.055 0.045,0.1 0.1,0.1 H 64 c 0.1,0 0,-0.1 0,0 V 53 c 0,0.1 0.1,0 0,0 H 63.1 C 63.045,53 63,53.045 63,53.1 v 2 c 0,0.055 0.045,0.1 0.1,0.1 H 64 c 0.1,0 0,-0.1 0,0 V 57 c 0,0.1 0.1,0 0,0 H 63.1 C 63.045,57 63,57.045 63,57.1 v 2 c 0,0.055 0.045,0.1 0.1,0.1 H 64 c 0.1,0 0,-0.1 0,0 V 61 c 0,0.1 0.1,0 0,0 H 63.1 C 63.045,61 63,61.045 63,61.1 v 2 c 0,0.055 0.045,0.1 0.1,0.1 H 64 c 0.1,0 0,-0.1 0,0 V 65 c 0,0.1 0.1,0 0,0 H 63.1 C 63.045,65 63,65.045 63,65.1 v 2 c 0,0.055 0.045,0.1 0.1,0.1 H 64 c 0.1,0 0,-0.1 0,0 V 69 c 0,0.1 0.1,0 0,0 H 63.1 C 63.045,69 63,69.045 63,69.1 v 2 c 0,0.055 0.045,0.1 0.1,0.1 H 64 c 0.1,0 0,-0.1 0,0 V 73 c 0,0.1 0.1,0 0,0 H 63.1 C 63.045,73 63,73.045 63,73.1 v 2 c 0,0.055 0.045,0.1 0.1,0.1 H 64 c 0.1,0 0,-0.1 0,0 V 77 c 0,0.1 0.1,0 0,0 H 63.1 C 63.045,77 63,77.045 63,77.1 v 2 c 0,0.055 0.045,0.1 0.1,0.1 H 64 c 0.1,0 0,-0.1 0,0 v 1.9 c 0,0.055 0.045,0.1 0.1,0.1"
       stroke="rgb(0,0,0)"
       stroke-width="0.2"
       id="path29684"
       style="stroke:#ff0000" /></g><rect
     style="opacity:1;fill:none;stroke:#0000ff;stroke-width:0.151;stroke-linejoin:round;stroke-miterlimit:0"
     id="rect29864"
     width="20"
     height="9"
     x="38"
     y="9" /><text
     xml:space="preserve"
     style="font-style:normal;font-variant:normal;font-weight:normal;font-stretch:normal;font-size:4.46008px;font-family:CutlingsGeometricRound;-inkscape-font-specification:CutlingsGeometricRound;opacity:1;fill:none;stroke:#336699;stroke-width:0.190906;stroke-linejoin:round;stroke-miterlimit:0"
     x="-16.477833"
     y="38.384724"
     id="text30335"
     transform="matrix(0,-1.0411704,0.96045758,0,0,0)"><tspan
       sodipodi:role="line"
       id="tspan30333"
       style="font-style:normal;font-variant:normal;font-weight:normal;font-stretch:normal;font-size:4.46008px;font-family:CutlingsGeometricRound;-inkscape-font-specification:CutlingsGeometricRound;stroke:#336699;stroke-width:0.190906"
       x="-16.477833"
       y="38.384724">s+-</tspan></text><text
     xml:space="preserve"
     style="font-style:normal;font-variant:normal;font-weight:normal;font-stretch:normal;font-size:1.94028px;font-family:CutlingsGeometricRound;-inkscape-font-specification:CutlingsGeometricRound;opacity:1;fill:none;stroke:#336699;stroke-width:0.151;stroke-linejoin:round;stroke-miterlimit:0;stroke-dasharray:none;paint-order:normal"
     x="-20"
     y="40.200439"
     id="text30339"
     transform="rotate(-90)"><tspan
       sodipodi:role="line"
       id="tspan30337"
       style="font-size:1.94028px;stroke-width:0.151;stroke-dasharray:none;paint-order:normal;stroke:#336699;-inkscape-font-specification:CutlingsGeometricRound;font-family:CutlingsGeometricRound;font-weight:normal;font-style:normal;font-stretch:normal;font-variant:normal"
       x="-20"
       y="40.200439">1</tspan><tspan
       sodipodi:role="line"
       style="font-size:1.94028px;stroke-width:0.151;stroke-dasharray:none;paint-order:normal;stroke:#336699;-inkscape-font-specification:CutlingsGeometricRound;font-family:CutlingsGeometricRound;font-weight:normal;font-style:normal;font-stretch:normal;font-variant:normal"
       x="-20"
       y="42.62579"
       id="tspan30341">2</tspan><tspan
       sodipodi:role="line"
       style="font-size:1.94028px;stroke-width:0.151;stroke-dasharray:none;paint-order:normal;stroke:#336699;-inkscape-font-specification:CutlingsGeometricRound;font-family:CutlingsGeometricRound;font-weight:normal;font-style:normal;font-stretch:normal;font-variant:normal"
       x="-20"
       y="45.05114"
       id="tspan30343">3</tspan><tspan
       sodipodi:role="line"
       style="font-size:1.94028px;stroke-width:0.151;stroke-dasharray:none;paint-order:normal;stroke:#336699;-inkscape-font-specification:CutlingsGeometricRound;font-family:CutlingsGeometricRound;font-weight:normal;font-style:normal;font-stretch:normal;font-variant:normal"
       x="-20"
       y="47.47649"
       id="tspan30345">4</tspan><tspan
       sodipodi:role="line"
       style="font-size:1.94028px;stroke-width:0.151;stroke-dasharray:none;paint-order:normal;stroke:#336699;-inkscape-font-specification:CutlingsGeometricRound;font-family:CutlingsGeometricRound;font-weight:normal;font-style:normal;font-stretch:normal;font-variant:normal"
       x="-20"
       y="49.90184"
       id="tspan30347">5</tspan><tspan
       sodipodi:role="line"
       style="font-size:1.94028px;stroke-width:0.151;stroke-dasharray:none;paint-order:normal;stroke:#336699;-inkscape-font-specification:CutlingsGeometricRound;font-family:CutlingsGeometricRound;font-weight:normal;font-style:normal;font-stretch:normal;font-variant:normal"
       x="-20"
       y="52.32719"
       id="tspan30349">6</tspan><tspan
       sodipodi:role="line"
       style="font-size:1.94028px;stroke-width:0.151;stroke-dasharray:none;paint-order:normal;stroke:#336699;-inkscape-font-specification:CutlingsGeometricRound;font-family:CutlingsGeometricRound;font-weight:normal;font-style:normal;font-stretch:normal;font-variant:normal"
       x="-20"
       y="54.752541"
       id="tspan30351">7</tspan><tspan
       sodipodi:role="line"
       style="font-size:1.94028px;stroke-width:0.151;stroke-dasharray:none;paint-order:normal;stroke:#336699;-inkscape-font-specification:CutlingsGeometricRound;font-family:CutlingsGeometricRound;font-weight:normal;font-style:normal;font-stretch:normal;font-variant:normal"
       x="-20"
       y="57.177891"
       id="tspan30353">8</tspan></text><rect
     style="opacity:1;fill:none;stroke:#0000ff;stroke-width:0.151;stroke-linejoin:round;stroke-miterlimit:0;stroke-dasharray:none;paint-order:normal"
     id="rect31964"
     width="22.999998"
     height="3"
     x="15"
     y="87" /><rect
     style="opacity:1;fill:none;stroke:#0000ff;stroke-width:0.151;stroke-linejoin:round;stroke-miterlimit:0;stroke-dasharray:none;paint-order:normal"
     id="rect31974"
     width="13"
     height="4"
     x="35"
     y="120" /><rect
     style="opacity:1;fill:none;stroke:#ff0000;stroke-width:0.151;stroke-linejoin:round;stroke-miterlimit:0;stroke-dasharray:none;paint-order:normal"
     id="rect32777"
     width="10"
     height="70"
     x="115.23753"
     y="5" /><rect
     style="opacity:1;fill:none;stroke:#ff0000;stroke-width:0.151;stroke-linejoin:round;stroke-miterlimit:0;stroke-dasharray:none;paint-order:normal"
     id="rect32779"
     width="10"
     height="70"
     x="126.23756"
     y="5" /><rect
     style="opacity:1;fill:none;stroke:#ff0000;stroke-width:0.151;stroke-linejoin:round;stroke-miterlimit:0;stroke-dasharray:none;paint-order:normal"
     id="rect34441"
     width="10"
     height="10"
     x="9"
     y="138" /><rect
     style="fill:none;stroke:#ff0000;stroke-width:0.151;stroke-linejoin:round;stroke-miterlimit:0;stroke-dasharray:none;paint-order:normal"
     id="rect34441-7"
     width="10"
     height="10"
     x="21"
     y="138" /><rect
     style="fill:none;stroke:#ff0000;stroke-width:0.151;stroke-linejoin:round;stroke-miterlimit:0;stroke-dasharray:none;paint-order:normal"
     id="rect34441-7-1"
     width="10"
     height="10"
     x="33"
     y="138" /><rect
     style="fill:none;stroke:#ff0000;stroke-width:0.151;stroke-linejoin:round;stroke-miterlimit:0;stroke-dasharray:none;paint-order:normal"
     id="rect34441-7-9"
     width="10"
     height="10"
     x="45"
     y="138" /><rect
     style="fill:none;stroke:#ff0000;stroke-width:0.151;stroke-linejoin:round;stroke-miterlimit:0;stroke-dasharray:none;paint-order:normal"
     id="rect34441-7-4"
     width="10"
     height="10"
     x="57"
     y="138" /><rect
     style="fill:none;stroke:#ff0000;stroke-width:0.151;stroke-linejoin:round;stroke-miterlimit:0;stroke-dasharray:none;paint-order:normal"
     id="rect34441-7-5"
     width="10"
     height="10"
     x="69"
     y="138" /><rect
     style="fill:none;stroke:#ff0000;stroke-width:0.151;stroke-linejoin:round;stroke-miterlimit:0;stroke-dasharray:none;paint-order:normal"
     id="rect34441-7-1-9"
     width="10"
     height="10"
     x="81"
     y="138" /><rect
     style="fill:none;stroke:#ff0000;stroke-width:0.151;stroke-linejoin:round;stroke-miterlimit:0;stroke-dasharray:none;paint-order:normal"
     id="rect34441-7-9-3"
     width="10"
     height="10"
     x="93"
     y="138" /><rect
     style="fill:none;stroke:#ff0000;stroke-width:0.151;stroke-linejoin:round;stroke-miterlimit:0;stroke-dasharray:none;paint-order:normal"
     id="rect34441-7-4-1"
     width="10"
     height="10"
     x="105"
     y="138" /><rect
     style="fill:none;stroke:#ff0000;stroke-width:0.151;stroke-linejoin:round;stroke-miterlimit:0;stroke-dasharray:none;paint-order:normal"
     id="rect34441-7-5-3"
     width="10"
     height="10"
     x="117"
     y="138" /><text
     xml:space="preserve"
     style="font-style:normal;font-variant:normal;font-weight:normal;font-stretch:normal;font-size:9.75858px;font-family:CutlingsGeometricRound;-inkscape-font-specification:CutlingsGeometricRound;opacity:1;fill:none;stroke:#336699;stroke-width:0.208849;stroke-linejoin:round;stroke-miterlimit:0;stroke-dasharray:none;paint-order:normal"
     x="-67.952751"
     y="52.958405"
     id="text35999"
     transform="rotate(-90)"><tspan
       sodipodi:role="line"
       id="tspan35997"
       style="font-style:normal;font-variant:normal;font-weight:normal;font-stretch:normal;font-size:9.75858px;font-family:CutlingsGeometricRound;-inkscape-font-specification:CutlingsGeometricRound;stroke:#336699;stroke-width:0.208849"
       x="-67.952751"
       y="52.958405">ESPilot</tspan></text><text
     xml:space="preserve"
     style="font-style:normal;font-variant:normal;font-weight:normal;font-stretch:normal;font-size:2.01636px;font-family:CutlingsGeometricRound;-inkscape-font-specification:CutlingsGeometricRound;fill:none;stroke:#336699;stroke-width:0.143844;stroke-linejoin:round;stroke-miterlimit:0"
     x="-86.581406"
     y="17.631069"
     id="text3759"
     transform="rotate(-90)"><tspan
       sodipodi:role="line"
       style="font-size:2.01636px;stroke-width:0.143844"
       x="-86.581406"
       y="17.631069"
       id="tspan3761">SDA</tspan><tspan
       sodipodi:role="line"
       style="font-size:2.01636px;stroke-width:0.143844"
       x="-86.581406"
       y="20.15152"
       id="tspan3765">SCK</tspan><tspan
       sodipodi:role="line"
       style="font-size:2.01636px;stroke-width:0.143844"
       x="-86.581406"
       y="22.671968"
       id="tspan3767">VCC</tspan><tspan
       sodipodi:role="line"
       style="font-size:2.01636px;stroke-width:0.143844"
       x="-86.581406"
       y="25.192419"
       id="tspan3769">GND</tspan><tspan
       sodipodi:role="line"
       style="font-size:2.01636px;stroke-width:0.143844"
       x="-86.581406"
       y="27.71287"
       id="tspan3771">GND</tspan><tspan
       sodipodi:role="line"
       style="font-size:2.01636px;stroke-width:0.143844"
       x="-86.581406"
       y="30.23332"
       id="tspan3773">VCC</tspan><tspan
       sodipodi:role="line"
       style="font-size:2.01636px;stroke-width:0.143844"
       x="-86.581406"
       y="32.753773"
       id="tspan3775">GTX</tspan><tspan
       sodipodi:role="line"
       style="font-size:2.01636px;stroke-width:0.143844"
       x="-86.581406"
       y="35.274223"
       id="tspan3777">GRX</tspan></text><rect
     style="fill:none;stroke:#0000ff;stroke-width:0.009;stroke-linejoin:round;stroke-miterlimit:0;stroke-dasharray:none"
     id="rect18654"
     width="9"
     height="3.3"
     x="78"
     y="80" /></svg>
